<svg width="174" height="41" viewBox="0 0 174 41" fill="none" xmlns="http://www.w3.org/2000/svg">
<g filter="url(#filter0_d_2_3)">
<path d="M21.1267 18.3276L16.4221 26.9961C16.2219 27.3698 15.9816 27.6834 15.7014 27.937C15.4211 28.1772 15.0341 28.2974 14.5402 28.2974C14.0865 28.2974 13.7061 28.1706 13.3991 27.917C13.1055 27.6634 12.8586 27.3631 12.6584 27.0161L7.69356 18.4878C7.77364 20.2896 7.84704 21.9512 7.91377 23.4727C7.94047 24.1266 7.96716 24.7806 7.99385 25.4346C8.02054 26.0885 8.04724 26.6958 8.07393 27.2563C8.10062 27.8169 8.12064 28.3174 8.13399 28.7578C8.16068 29.1849 8.1807 29.4985 8.19405 29.6987C8.20739 29.8989 8.20072 30.0791 8.17403 30.2393C8.16068 30.3994 8.11397 30.5396 8.03389 30.6597C7.95381 30.7664 7.84037 30.8532 7.69356 30.9199C7.54675 30.9733 7.34655 31 7.09297 31H4.89082C4.65059 31 4.4237 30.9266 4.21016 30.7798C4.00996 30.6196 3.90987 30.3127 3.90987 29.8589V4.39404C3.90987 4.14046 3.94323 3.88688 4.00996 3.6333C4.09004 3.37972 4.21683 3.15283 4.39034 2.95264C4.57718 2.7391 4.81742 2.57227 5.11104 2.45215C5.40466 2.31868 5.76501 2.25195 6.19209 2.25195H12.6384C13.1589 2.25195 13.606 2.34538 13.9797 2.53223C14.3534 2.70573 14.6737 2.99935 14.9406 3.41309L20.3259 11.9614L23.9294 5.05469C24.1429 4.64095 24.3498 4.26725 24.55 3.93359C24.7502 3.58659 24.9838 3.29297 25.2507 3.05273C25.531 2.79915 25.8713 2.60563 26.2717 2.47217C26.6854 2.32536 27.2126 2.25195 27.8532 2.25195H33.1784C33.6856 2.25195 34.1193 2.31868 34.4797 2.45215C34.8534 2.58561 35.1537 2.76579 35.3806 2.99268C35.6208 3.21956 35.7943 3.48649 35.9011 3.79346C36.0078 4.10042 36.0612 4.43408 36.0612 4.79443V28.2173C36.0612 28.631 36.0279 29.0114 35.9611 29.3584C35.8944 29.6921 35.7543 29.9857 35.5407 30.2393C35.3405 30.4795 35.0469 30.6663 34.6599 30.7998C34.2862 30.9333 33.7924 31 33.1784 31H23.9294C23.3822 31 22.9284 30.9399 22.5681 30.8198C22.2077 30.6997 21.9208 30.5262 21.7072 30.2993C21.4937 30.0724 21.3402 29.7855 21.2468 29.4385C21.1667 29.0915 21.1267 28.6844 21.1267 28.2173V18.3276ZM13.4592 4.49414C13.299 4.22721 13.1189 4.06706 12.9187 4.01367C12.7318 3.96029 12.5316 3.93359 12.3181 3.93359H11.3171L18.5241 15.3848L19.3449 13.8433L13.4592 4.49414ZM34.3596 5.21484C34.3596 4.92122 34.3396 4.68766 34.2995 4.51416C34.2595 4.34066 34.1794 4.21387 34.0593 4.13379C33.9392 4.04036 33.779 3.98698 33.5788 3.97363C33.3786 3.94694 33.1184 3.93359 32.798 3.93359V29.3184C33.1184 29.3184 33.3786 29.3117 33.5788 29.2983C33.779 29.2716 33.9392 29.2183 34.0593 29.1382C34.1794 29.0448 34.2595 28.918 34.2995 28.7578C34.3396 28.5843 34.3596 28.3441 34.3596 28.0371V5.21484ZM42.1632 15.7852L37.0782 4.59424C36.9981 4.40739 36.9448 4.24056 36.9181 4.09375C36.8914 3.94694 36.878 3.80013 36.878 3.65332C36.878 3.1862 37.0248 2.83919 37.3185 2.6123C37.6121 2.37207 37.919 2.25195 38.2394 2.25195H49.17C49.5037 2.25195 49.7906 2.29867 50.0309 2.39209C50.2711 2.47217 50.4713 2.57227 50.6314 2.69238C50.7916 2.8125 50.9117 2.94596 50.9918 3.09277C51.0852 3.22624 51.152 3.34635 51.192 3.45312L54.7154 13.1226L57.9186 3.89355C57.9986 3.66667 58.072 3.45312 58.1388 3.25293C58.2188 3.05273 58.3056 2.87923 58.399 2.73242C58.5058 2.58561 58.6326 2.47217 58.7794 2.39209C58.9262 2.29867 59.1197 2.25195 59.36 2.25195H61.2018C61.3886 2.25195 61.5488 2.29199 61.6822 2.37207C61.8157 2.45215 61.8824 2.58561 61.8824 2.77246C61.8824 3.02604 61.8023 3.3597 61.6422 3.77344L57.0978 15.3447V28.1973C57.0978 28.6644 57.051 29.0715 56.9576 29.4185C56.8642 29.7655 56.704 30.0591 56.4771 30.2993C56.2636 30.5262 55.97 30.6997 55.5963 30.8198C55.2359 30.9399 54.7755 31 54.2149 31H44.7657C44.2452 31 43.8181 30.9399 43.4845 30.8198C43.1508 30.6997 42.8839 30.5262 42.6837 30.2993C42.4968 30.0724 42.3634 29.7855 42.2833 29.4385C42.2032 29.0915 42.1632 28.6844 42.1632 28.2173V15.7852ZM53.8346 29.3184C54.1549 29.3184 54.4151 29.3117 54.6153 29.2983C54.8155 29.2716 54.9757 29.2183 55.0958 29.1382C55.2159 29.0448 55.296 28.918 55.336 28.7578C55.3761 28.5843 55.3961 28.3441 55.3961 28.0371V19.7891L49.8106 4.5542C49.7306 4.32731 49.6171 4.16715 49.4703 4.07373C49.3369 3.98031 49.1567 3.93359 48.9298 3.93359H47.9688L53.8346 19.9492V29.3184ZM79.5356 18.3276L74.8311 26.9961C74.6309 27.3698 74.3906 27.6834 74.1104 27.937C73.8301 28.1772 73.443 28.2974 72.9492 28.2974C72.4954 28.2974 72.1151 28.1706 71.8081 27.917C71.5145 27.6634 71.2676 27.3631 71.0674 27.0161L66.1025 18.4878C66.1826 20.2896 66.256 21.9512 66.3228 23.4727C66.3495 24.1266 66.3761 24.7806 66.4028 25.4346C66.4295 26.0885 66.4562 26.6958 66.4829 27.2563C66.5096 27.8169 66.5296 28.3174 66.543 28.7578C66.5697 29.1849 66.5897 29.4985 66.603 29.6987C66.6164 29.8989 66.6097 30.0791 66.583 30.2393C66.5697 30.3994 66.523 30.5396 66.4429 30.6597C66.3628 30.7664 66.2494 30.8532 66.1025 30.9199C65.9557 30.9733 65.7555 31 65.502 31H63.2998C63.0596 31 62.8327 30.9266 62.6191 30.7798C62.4189 30.6196 62.3189 30.3127 62.3189 29.8589V4.39404C62.3189 4.14046 62.3522 3.88688 62.4189 3.6333C62.499 3.37972 62.6258 3.15283 62.7993 2.95264C62.9862 2.7391 63.2264 2.57227 63.52 2.45215C63.8136 2.31868 64.174 2.25195 64.6011 2.25195H71.0474C71.5679 2.25195 72.015 2.34538 72.3887 2.53223C72.7624 2.70573 73.0827 2.99935 73.3496 3.41309L78.7349 11.9614L82.3384 5.05469C82.5519 4.64095 82.7588 4.26725 82.959 3.93359C83.1592 3.58659 83.3927 3.29297 83.6597 3.05273C83.9399 2.79915 84.2803 2.60563 84.6807 2.47217C85.0944 2.32536 85.6216 2.25195 86.2622 2.25195H91.5874C92.0946 2.25195 92.5283 2.31868 92.8887 2.45215C93.2624 2.58561 93.5627 2.76579 93.7896 2.99268C94.0298 3.21956 94.2033 3.48649 94.3101 3.79346C94.4168 4.10042 94.4702 4.43408 94.4702 4.79443V28.2173C94.4702 28.631 94.4369 29.0114 94.3701 29.3584C94.3034 29.6921 94.1633 29.9857 93.9497 30.2393C93.7495 30.4795 93.4559 30.6663 93.0689 30.7998C92.6952 30.9333 92.2013 31 91.5874 31H82.3384C81.7912 31 81.3374 30.9399 80.9771 30.8198C80.6167 30.6997 80.3298 30.5262 80.1162 30.2993C79.9027 30.0724 79.7492 29.7855 79.6558 29.4385C79.5757 29.0915 79.5356 28.6844 79.5356 28.2173V18.3276ZM71.8682 4.49414C71.708 4.22721 71.5278 4.06706 71.3276 4.01367C71.1408 3.96029 70.9406 3.93359 70.7271 3.93359H69.7261L76.9331 15.3848L77.7539 13.8433L71.8682 4.49414ZM92.7686 5.21484C92.7686 4.92122 92.7485 4.68766 92.7085 4.51416C92.6685 4.34066 92.5884 4.21387 92.4683 4.13379C92.3481 4.04036 92.188 3.98698 91.9878 3.97363C91.7876 3.94694 91.5273 3.93359 91.207 3.93359V29.3184C91.5273 29.3184 91.7876 29.3117 91.9878 29.2983C92.188 29.2716 92.3481 29.2183 92.4683 29.1382C92.5884 29.0448 92.6685 28.918 92.7085 28.7578C92.7485 28.5843 92.7686 28.3441 92.7686 28.0371V5.21484ZM114.346 18.3276L109.641 26.9961C109.441 27.3698 109.201 27.6834 108.92 27.937C108.64 28.1772 108.253 28.2974 107.759 28.2974C107.305 28.2974 106.925 28.1706 106.618 27.917C106.324 27.6634 106.078 27.3631 105.877 27.0161L100.913 18.4878C100.993 20.2896 101.066 21.9512 101.133 23.4727C101.159 24.1266 101.186 24.7806 101.213 25.4346C101.239 26.0885 101.266 26.6958 101.293 27.2563C101.32 27.8169 101.34 28.3174 101.353 28.7578C101.38 29.1849 101.4 29.4985 101.413 29.6987C101.426 29.8989 101.42 30.0791 101.393 30.2393C101.38 30.3994 101.333 30.5396 101.253 30.6597C101.173 30.7664 101.059 30.8532 100.913 30.9199C100.766 30.9733 100.566 31 100.312 31H98.1098C97.8695 31 97.6426 30.9266 97.4291 30.7798C97.2289 30.6196 97.1288 30.3127 97.1288 29.8589V4.39404C97.1288 4.14046 97.1622 3.88688 97.2289 3.6333C97.309 3.37972 97.4358 3.15283 97.6093 2.95264C97.7961 2.7391 98.0364 2.57227 98.33 2.45215C98.6236 2.31868 98.984 2.25195 99.411 2.25195H105.857C106.378 2.25195 106.825 2.34538 107.199 2.53223C107.572 2.70573 107.893 2.99935 108.16 3.41309L113.545 11.9614L117.148 5.05469C117.362 4.64095 117.569 4.26725 117.769 3.93359C117.969 3.58659 118.203 3.29297 118.47 3.05273C118.75 2.79915 119.09 2.60563 119.491 2.47217C119.904 2.32536 120.432 2.25195 121.072 2.25195H126.397C126.905 2.25195 127.338 2.31868 127.699 2.45215C128.072 2.58561 128.373 2.76579 128.6 2.99268C128.84 3.21956 129.013 3.48649 129.12 3.79346C129.227 4.10042 129.28 4.43408 129.28 4.79443V28.2173C129.28 28.631 129.247 29.0114 129.18 29.3584C129.113 29.6921 128.973 29.9857 128.76 30.2393C128.559 30.4795 128.266 30.6663 127.879 30.7998C127.505 30.9333 127.011 31 126.397 31H117.148C116.601 31 116.147 30.9399 115.787 30.8198C115.427 30.6997 115.14 30.5262 114.926 30.2993C114.713 30.0724 114.559 29.7855 114.466 29.4385C114.386 29.0915 114.346 28.6844 114.346 28.2173V18.3276ZM106.678 4.49414C106.518 4.22721 106.338 4.06706 106.138 4.01367C105.951 3.96029 105.751 3.93359 105.537 3.93359H104.536L111.743 15.3848L112.564 13.8433L106.678 4.49414ZM127.579 5.21484C127.579 4.92122 127.559 4.68766 127.518 4.51416C127.478 4.34066 127.398 4.21387 127.278 4.13379C127.158 4.04036 126.998 3.98698 126.798 3.97363C126.598 3.94694 126.337 3.93359 126.017 3.93359V29.3184C126.337 29.3184 126.598 29.3117 126.798 29.2983C126.998 29.2716 127.158 29.2183 127.278 29.1382C127.398 29.0448 127.478 28.918 127.518 28.7578C127.559 28.5843 127.579 28.3441 127.579 28.0371V5.21484ZM149.156 18.3276L144.451 26.9961C144.251 27.3698 144.011 27.6834 143.73 27.937C143.45 28.1772 143.063 28.2974 142.569 28.2974C142.115 28.2974 141.735 28.1706 141.428 27.917C141.134 27.6634 140.887 27.3631 140.687 27.0161L135.722 18.4878C135.803 20.2896 135.876 21.9512 135.943 23.4727C135.969 24.1266 135.996 24.7806 136.023 25.4346C136.049 26.0885 136.076 26.6958 136.103 27.2563C136.13 27.8169 136.15 28.3174 136.163 28.7578C136.19 29.1849 136.21 29.4985 136.223 29.6987C136.236 29.8989 136.23 30.0791 136.203 30.2393C136.19 30.3994 136.143 30.5396 136.063 30.6597C135.983 30.7664 135.869 30.8532 135.722 30.9199C135.576 30.9733 135.375 31 135.122 31H132.92C132.679 31 132.453 30.9266 132.239 30.7798C132.039 30.6196 131.939 30.3127 131.939 29.8589V4.39404C131.939 4.14046 131.972 3.88688 132.039 3.6333C132.119 3.37972 132.246 3.15283 132.419 2.95264C132.606 2.7391 132.846 2.57227 133.14 2.45215C133.434 2.31868 133.794 2.25195 134.221 2.25195H140.667C141.188 2.25195 141.635 2.34538 142.009 2.53223C142.382 2.70573 142.703 2.99935 142.97 3.41309L148.355 11.9614L151.958 5.05469C152.172 4.64095 152.379 4.26725 152.579 3.93359C152.779 3.58659 153.013 3.29297 153.28 3.05273C153.56 2.79915 153.9 2.60563 154.301 2.47217C154.714 2.32536 155.242 2.25195 155.882 2.25195H161.207C161.714 2.25195 162.148 2.31868 162.509 2.45215C162.882 2.58561 163.183 2.76579 163.409 2.99268C163.65 3.21956 163.823 3.48649 163.93 3.79346C164.037 4.10042 164.09 4.43408 164.09 4.79443V28.2173C164.09 28.631 164.057 29.0114 163.99 29.3584C163.923 29.6921 163.783 29.9857 163.57 30.2393C163.369 30.4795 163.076 30.6663 162.689 30.7998C162.315 30.9333 161.821 31 161.207 31H151.958C151.411 31 150.957 30.9399 150.597 30.8198C150.237 30.6997 149.95 30.5262 149.736 30.2993C149.523 30.0724 149.369 29.7855 149.276 29.4385C149.196 29.0915 149.156 28.6844 149.156 28.2173V18.3276ZM141.488 4.49414C141.328 4.22721 141.148 4.06706 140.948 4.01367C140.761 3.96029 140.561 3.93359 140.347 3.93359H139.346L146.553 15.3848L147.374 13.8433L141.488 4.49414ZM162.388 5.21484C162.388 4.92122 162.368 4.68766 162.328 4.51416C162.288 4.34066 162.208 4.21387 162.088 4.13379C161.968 4.04036 161.808 3.98698 161.608 3.97363C161.408 3.94694 161.147 3.93359 160.827 3.93359V29.3184C161.147 29.3184 161.408 29.3117 161.608 29.2983C161.808 29.2716 161.968 29.2183 162.088 29.1382C162.208 29.0448 162.288 28.918 162.328 28.7578C162.368 28.5843 162.388 28.3441 162.388 28.0371V5.21484Z" fill="#094067"/>
</g>
<defs>
<filter id="filter0_d_2_3" x="0.909866" y="0.251953" width="172.18" height="40.748" filterUnits="userSpaceOnUse" color-interpolation-filters="sRGB">
<feFlood flood-opacity="0" result="BackgroundImageFix"/>
<feColorMatrix in="SourceAlpha" type="matrix" values="0 0 0 0 0 0 0 0 0 0 0 0 0 0 0 0 0 0 127 0" result="hardAlpha"/>
<feOffset dx="3" dy="4"/>
<feGaussianBlur stdDeviation="3"/>
<feComposite in2="hardAlpha" operator="out"/>
<feColorMatrix type="matrix" values="0 0 0 0 0 0 0 0 0 0 0 0 0 0 0 0 0 0 0.25 0"/>
<feBlend mode="normal" in2="BackgroundImageFix" result="effect1_dropShadow_2_3"/>
<feBlend mode="normal" in="SourceGraphic" in2="effect1_dropShadow_2_3" result="shape"/>
</filter>
</defs>
</svg>
