<svg width="176" height="47" viewBox="0 0 176 47" fill="none" xmlns="http://www.w3.org/2000/svg">
<g filter="url(#filter0_d_2_3)">
<path d="M22.9228 36.034C22.8682 36.0613 22.8135 36.075 22.7588 36.075C22.7042 36.075 22.5948 36.075 22.4308 36.075C22.0482 36.075 21.5972 36.0067 21.0778 35.87C20.5858 35.7607 20.0938 35.6103 19.6018 35.419C19.1372 35.255 18.7272 35.0637 18.3718 34.845C18.0438 34.6263 17.8388 34.435 17.7568 34.271C17.7295 33.8883 17.7158 33.492 17.7158 33.082C17.7158 32.672 17.7158 32.2757 17.7158 31.893C17.7158 28.8317 17.9345 25.6337 18.3718 22.299C18.8365 18.9643 19.5882 15.3563 20.6268 11.475C20.7362 11.0923 20.8455 10.614 20.9548 10.04C21.0915 9.43867 21.2282 8.79633 21.3648 8.113C20.7088 8.63233 19.9298 9.466 19.0278 10.614C18.1258 11.7347 17.1692 13.074 16.1578 14.632C15.1738 16.1627 14.1762 17.8573 13.1648 19.716C12.1808 21.5473 11.2788 23.4197 10.4588 25.333C9.63883 27.219 8.92816 29.0913 8.32683 30.95C7.75283 32.8087 7.3975 34.5307 7.26083 36.116C5.94883 35.7333 5.03316 35.3507 4.51383 34.968C4.02183 34.5853 3.77583 34.1207 3.77583 33.574C3.77583 33.082 3.92616 32.385 4.22683 31.483C4.5275 30.581 4.95116 29.515 5.49783 28.285C6.0445 27.055 6.71416 25.6883 7.50683 24.185C8.2995 22.6543 9.17416 21.0143 10.1308 19.265C11.2242 17.2697 12.2902 15.3973 13.3288 13.648C14.3948 11.8987 15.4335 10.3133 16.4448 8.892C17.4562 7.47067 18.4402 6.24066 19.3968 5.202C20.3808 4.16333 21.3512 3.37067 22.3078 2.824C22.6905 2.824 23.1962 2.91966 23.8248 3.111C24.4808 3.30233 25.1095 3.53466 25.7108 3.808C26.3395 4.08133 26.8862 4.36833 27.3508 4.669C27.8428 4.94233 28.1162 5.17466 28.1708 5.366C27.7882 6.13133 27.3372 7.27933 26.8178 8.81C26.2985 10.3407 25.7655 12.0763 25.2188 14.017C24.6995 15.9577 24.1938 18.0213 23.7018 20.208C23.2372 22.3673 22.8682 24.4447 22.5948 26.44C23.2235 24.9367 23.9478 23.3787 24.7678 21.766C25.6152 20.126 26.5035 18.5133 27.4328 16.928C28.3622 15.3153 29.3052 13.7573 30.2618 12.254C31.2458 10.7507 32.2025 9.384 33.1318 8.154C34.0612 6.89667 34.9222 5.80333 35.7148 4.874C36.5348 3.94467 37.2592 3.26133 37.8878 2.824C38.2705 2.824 38.7762 2.91966 39.4048 3.111C40.0608 3.30233 40.6895 3.53466 41.2908 3.808C41.9195 4.08133 42.4662 4.36833 42.9308 4.669C43.4228 4.94233 43.6962 5.17466 43.7508 5.366C42.8762 6.924 42.1108 8.82367 41.4548 11.065C40.7988 13.3063 40.2385 15.657 39.7738 18.117C39.3365 20.577 38.9948 23.0233 38.7488 25.456C38.5302 27.8613 38.4208 30.0207 38.4208 31.934C38.4208 32.5627 38.4208 33.2187 38.4208 33.902C38.4208 34.5853 38.4482 35.296 38.5028 36.034C38.1202 36.034 37.6555 35.9793 37.1088 35.87C36.5895 35.788 36.0702 35.665 35.5508 35.501C35.0588 35.337 34.6078 35.1457 34.1978 34.927C33.7878 34.7357 33.5008 34.517 33.3368 34.271C33.3095 33.8883 33.2958 33.492 33.2958 33.082C33.2958 32.672 33.2958 32.2757 33.2958 31.893C33.2958 28.8317 33.5145 25.6337 33.9518 22.299C34.4165 18.9643 35.1682 15.3563 36.2068 11.475C36.3162 11.0923 36.4392 10.573 36.5758 9.917C36.7125 9.261 36.8492 8.57767 36.9858 7.867C36.2205 8.24967 35.3458 8.98767 34.3618 10.081C33.4052 11.147 32.4212 12.459 31.4098 14.017C30.4258 15.5477 29.4418 17.256 28.4578 19.142C27.5012 21.028 26.6265 22.955 25.8338 24.923C25.0685 26.8637 24.4125 28.8043 23.8658 30.745C23.3465 32.6583 23.0322 34.4213 22.9228 36.034ZM56.8897 18.855C58.9397 16.6137 60.7711 14.2357 62.3837 11.721C64.0237 9.20633 65.5407 6.37733 66.9347 3.234C67.6454 3.316 68.3287 3.50733 68.9847 3.808C69.6407 4.10867 70.1601 4.45033 70.5427 4.833C69.0394 6.637 67.6727 8.277 66.4427 9.753C65.2401 11.229 64.1331 12.623 63.1217 13.935C62.1104 15.2197 61.1674 16.4633 60.2927 17.666C59.4454 18.8413 58.6117 20.0303 57.7917 21.233C57.3817 22.627 56.9991 24.0347 56.6437 25.456C56.2884 26.8773 55.9741 28.244 55.7007 29.556C55.4274 30.8407 55.2087 32.0297 55.0447 33.123C54.9081 34.2437 54.8397 35.2003 54.8397 35.993C54.5391 35.993 54.0607 35.9247 53.4047 35.788C52.7487 35.6787 52.0791 35.542 51.3957 35.378C50.7124 35.214 50.0837 35.05 49.5097 34.886C48.9631 34.722 48.6351 34.5853 48.5257 34.476C48.9631 33.738 49.3867 32.836 49.7967 31.77C50.2341 30.6767 50.6577 29.5423 51.0677 28.367C51.4777 27.1643 51.8741 25.9617 52.2567 24.759C52.6394 23.529 52.9947 22.3947 53.3227 21.356C52.6394 19.224 51.9697 17.2287 51.3137 15.37C50.6851 13.484 50.0701 11.7893 49.4687 10.286C48.8674 8.75533 48.2934 7.44333 47.7467 6.35C47.2001 5.25666 46.6807 4.423 46.1887 3.849C46.4621 3.73967 46.8721 3.63033 47.4187 3.521C47.9927 3.41166 48.6077 3.30233 49.2637 3.193C49.9471 3.08367 50.6304 3.00167 51.3137 2.947C52.0244 2.865 52.6531 2.81033 53.1997 2.783C53.1997 3.46633 53.2544 4.3 53.3637 5.284C53.5004 6.268 53.6644 7.32033 53.8557 8.441C54.0744 9.56167 54.3204 10.696 54.5937 11.844C54.8671 12.992 55.1404 14.0443 55.4137 15.001C55.6871 15.9577 55.9467 16.7913 56.1927 17.502C56.4661 18.1853 56.6984 18.6363 56.8897 18.855ZM81.532 36.034C81.4773 36.0613 81.4227 36.075 81.368 36.075C81.3133 36.075 81.204 36.075 81.04 36.075C80.6573 36.075 80.2063 36.0067 79.687 35.87C79.195 35.7607 78.703 35.6103 78.211 35.419C77.7463 35.255 77.3363 35.0637 76.981 34.845C76.653 34.6263 76.448 34.435 76.366 34.271C76.3387 33.8883 76.325 33.492 76.325 33.082C76.325 32.672 76.325 32.2757 76.325 31.893C76.325 28.8317 76.5437 25.6337 76.981 22.299C77.4457 18.9643 78.1973 15.3563 79.236 11.475C79.3453 11.0923 79.4547 10.614 79.564 10.04C79.7007 9.43867 79.8373 8.79633 79.974 8.113C79.318 8.63233 78.539 9.466 77.637 10.614C76.735 11.7347 75.7783 13.074 74.767 14.632C73.783 16.1627 72.7853 17.8573 71.774 19.716C70.79 21.5473 69.888 23.4197 69.068 25.333C68.248 27.219 67.5373 29.0913 66.936 30.95C66.362 32.8087 66.0067 34.5307 65.87 36.116C64.558 35.7333 63.6423 35.3507 63.123 34.968C62.631 34.5853 62.385 34.1207 62.385 33.574C62.385 33.082 62.5353 32.385 62.836 31.483C63.1367 30.581 63.5603 29.515 64.107 28.285C64.6537 27.055 65.3233 25.6883 66.116 24.185C66.9087 22.6543 67.7833 21.0143 68.74 19.265C69.8333 17.2697 70.8993 15.3973 71.938 13.648C73.004 11.8987 74.0427 10.3133 75.054 8.892C76.0653 7.47067 77.0493 6.24066 78.006 5.202C78.99 4.16333 79.9603 3.37067 80.917 2.824C81.2997 2.824 81.8053 2.91966 82.434 3.111C83.09 3.30233 83.7187 3.53466 84.32 3.808C84.9487 4.08133 85.4953 4.36833 85.96 4.669C86.452 4.94233 86.7253 5.17466 86.78 5.366C86.3973 6.13133 85.9463 7.27933 85.427 8.81C84.9077 10.3407 84.3747 12.0763 83.828 14.017C83.3087 15.9577 82.803 18.0213 82.311 20.208C81.8463 22.3673 81.4773 24.4447 81.204 26.44C81.8327 24.9367 82.557 23.3787 83.377 21.766C84.2243 20.126 85.1127 18.5133 86.042 16.928C86.9713 15.3153 87.9143 13.7573 88.871 12.254C89.855 10.7507 90.8117 9.384 91.741 8.154C92.6703 6.89667 93.5313 5.80333 94.324 4.874C95.144 3.94467 95.8683 3.26133 96.497 2.824C96.8797 2.824 97.3853 2.91966 98.014 3.111C98.67 3.30233 99.2987 3.53466 99.9 3.808C100.529 4.08133 101.075 4.36833 101.54 4.669C102.032 4.94233 102.305 5.17466 102.36 5.366C101.485 6.924 100.72 8.82367 100.064 11.065C99.408 13.3063 98.8477 15.657 98.383 18.117C97.9457 20.577 97.604 23.0233 97.358 25.456C97.1393 27.8613 97.03 30.0207 97.03 31.934C97.03 32.5627 97.03 33.2187 97.03 33.902C97.03 34.5853 97.0573 35.296 97.112 36.034C96.7293 36.034 96.2647 35.9793 95.718 35.87C95.1987 35.788 94.6793 35.665 94.16 35.501C93.668 35.337 93.217 35.1457 92.807 34.927C92.397 34.7357 92.11 34.517 91.946 34.271C91.9187 33.8883 91.905 33.492 91.905 33.082C91.905 32.672 91.905 32.2757 91.905 31.893C91.905 28.8317 92.1237 25.6337 92.561 22.299C93.0257 18.9643 93.7773 15.3563 94.816 11.475C94.9253 11.0923 95.0483 10.573 95.185 9.917C95.3217 9.261 95.4583 8.57767 95.595 7.867C94.8297 8.24967 93.955 8.98767 92.971 10.081C92.0143 11.147 91.0303 12.459 90.019 14.017C89.035 15.5477 88.051 17.256 87.067 19.142C86.1103 21.028 85.2357 22.955 84.443 24.923C83.6777 26.8637 83.0217 28.8043 82.475 30.745C81.9557 32.6583 81.6413 34.4213 81.532 36.034ZM119.145 36.034C119.09 36.0613 119.035 36.075 118.981 36.075C118.926 36.075 118.817 36.075 118.653 36.075C118.27 36.075 117.819 36.0067 117.3 35.87C116.808 35.7607 116.316 35.6103 115.824 35.419C115.359 35.255 114.949 35.0637 114.594 34.845C114.266 34.6263 114.061 34.435 113.979 34.271C113.951 33.8883 113.938 33.492 113.938 33.082C113.938 32.672 113.938 32.2757 113.938 31.893C113.938 28.8317 114.156 25.6337 114.594 22.299C115.058 18.9643 115.81 15.3563 116.849 11.475C116.958 11.0923 117.067 10.614 117.177 10.04C117.313 9.43867 117.45 8.79633 117.587 8.113C116.931 8.63233 116.152 9.466 115.25 10.614C114.348 11.7347 113.391 13.074 112.38 14.632C111.396 16.1627 110.398 17.8573 109.387 19.716C108.403 21.5473 107.501 23.4197 106.681 25.333C105.861 27.219 105.15 29.0913 104.549 30.95C103.975 32.8087 103.619 34.5307 103.483 36.116C102.171 35.7333 101.255 35.3507 100.736 34.968C100.244 34.5853 99.9977 34.1207 99.9977 33.574C99.9977 33.082 100.148 32.385 100.449 31.483C100.749 30.581 101.173 29.515 101.72 28.285C102.266 27.055 102.936 25.6883 103.729 24.185C104.521 22.6543 105.396 21.0143 106.353 19.265C107.446 17.2697 108.512 15.3973 109.551 13.648C110.617 11.8987 111.655 10.3133 112.667 8.892C113.678 7.47067 114.662 6.24066 115.619 5.202C116.603 4.16333 117.573 3.37067 118.53 2.824C118.912 2.824 119.418 2.91966 120.047 3.111C120.703 3.30233 121.331 3.53466 121.933 3.808C122.561 4.08133 123.108 4.36833 123.573 4.669C124.065 4.94233 124.338 5.17466 124.393 5.366C124.01 6.13133 123.559 7.27933 123.04 8.81C122.52 10.3407 121.987 12.0763 121.441 14.017C120.921 15.9577 120.416 18.0213 119.924 20.208C119.459 22.3673 119.09 24.4447 118.817 26.44C119.445 24.9367 120.17 23.3787 120.99 21.766C121.837 20.126 122.725 18.5133 123.655 16.928C124.584 15.3153 125.527 13.7573 126.484 12.254C127.468 10.7507 128.424 9.384 129.354 8.154C130.283 6.89667 131.144 5.80333 131.937 4.874C132.757 3.94467 133.481 3.26133 134.11 2.824C134.492 2.824 134.998 2.91966 135.627 3.111C136.283 3.30233 136.911 3.53466 137.513 3.808C138.141 4.08133 138.688 4.36833 139.153 4.669C139.645 4.94233 139.918 5.17466 139.973 5.366C139.098 6.924 138.333 8.82367 137.677 11.065C137.021 13.3063 136.46 15.657 135.996 18.117C135.558 20.577 135.217 23.0233 134.971 25.456C134.752 27.8613 134.643 30.0207 134.643 31.934C134.643 32.5627 134.643 33.2187 134.643 33.902C134.643 34.5853 134.67 35.296 134.725 36.034C134.342 36.034 133.877 35.9793 133.331 35.87C132.811 35.788 132.292 35.665 131.773 35.501C131.281 35.337 130.83 35.1457 130.42 34.927C130.01 34.7357 129.723 34.517 129.559 34.271C129.531 33.8883 129.518 33.492 129.518 33.082C129.518 32.672 129.518 32.2757 129.518 31.893C129.518 28.8317 129.736 25.6337 130.174 22.299C130.638 18.9643 131.39 15.3563 132.429 11.475C132.538 11.0923 132.661 10.573 132.798 9.917C132.934 9.261 133.071 8.57767 133.208 7.867C132.442 8.24967 131.568 8.98767 130.584 10.081C129.627 11.147 128.643 12.459 127.632 14.017C126.648 15.5477 125.664 17.256 124.68 19.142C123.723 21.028 122.848 22.955 122.056 24.923C121.29 26.8637 120.634 28.8043 120.088 30.745C119.568 32.6583 119.254 34.4213 119.145 36.034ZM166.236 5.366C166.318 5.83067 166.373 6.15867 166.4 6.35C166.455 6.514 166.482 6.74633 166.482 7.047C166.482 7.949 166.277 8.79633 165.867 9.589C165.484 10.3543 164.951 10.901 164.268 11.229C163.721 10.491 163.052 9.86233 162.259 9.343C161.466 8.79633 160.592 8.359 159.635 8.031C158.706 7.67567 157.735 7.416 156.724 7.252C155.713 7.088 154.729 7.006 153.772 7.006C152.815 7.006 151.913 7.088 151.066 7.252C150.246 7.38867 149.508 7.59367 148.852 7.867C148.223 8.113 147.718 8.42733 147.335 8.81C146.98 9.19267 146.802 9.63 146.802 10.122C146.884 10.7233 147.253 11.3383 147.909 11.967C148.565 12.5683 149.371 13.1697 150.328 13.771C151.285 14.345 152.337 14.919 153.485 15.493C154.66 16.067 155.808 16.6137 156.929 17.133C158.323 17.789 159.526 18.404 160.537 18.978C161.548 19.5247 162.382 20.1397 163.038 20.823C163.694 21.479 164.186 22.2307 164.514 23.078C164.842 23.9253 165.006 24.9503 165.006 26.153C165.006 27.547 164.774 28.859 164.309 30.089C163.844 31.2917 163.161 32.344 162.259 33.246C161.384 34.148 160.318 34.845 159.061 35.337C157.804 35.8563 156.396 36.116 154.838 36.116C153.307 36.116 151.654 35.8837 149.877 35.419C148.1 34.9543 146.433 34.312 144.875 33.492C143.344 32.6993 142.06 31.7837 141.021 30.745C140.01 29.679 139.504 28.5583 139.504 27.383C139.504 26.8363 139.654 26.1393 139.955 25.292C140.283 24.4447 140.857 23.5563 141.677 22.627C141.759 23.447 142.196 24.4173 142.989 25.538C143.809 26.6587 145.025 27.6973 146.638 28.654C148.141 29.5287 149.686 30.171 151.271 30.581C152.884 30.9637 154.387 31.155 155.781 31.155C157.312 31.155 158.555 30.9637 159.512 30.581C160.469 30.1983 161.22 29.7473 161.767 29.228C162.314 28.6813 162.696 28.1347 162.915 27.588C163.134 27.0413 163.257 26.604 163.284 26.276C163.257 25.7293 162.997 25.21 162.505 24.718C162.04 24.1987 161.398 23.7067 160.578 23.242C159.785 22.75 158.856 22.258 157.79 21.766C156.724 21.274 155.617 20.782 154.469 20.29C152.747 19.5247 151.257 18.814 150 18.158C148.77 17.4747 147.745 16.7913 146.925 16.108C146.132 15.3973 145.545 14.6593 145.162 13.894C144.807 13.1287 144.629 12.254 144.629 11.27C144.629 9.73933 145.094 8.29067 146.023 6.924C146.952 5.55733 148.292 4.51867 150.041 3.808C150.916 3.42533 151.845 3.152 152.829 2.988C153.84 2.824 154.824 2.742 155.781 2.742C157.585 2.742 159.348 2.988 161.07 3.48C162.792 3.972 164.514 4.60067 166.236 5.366Z" fill="#094067"/>
</g>
<defs>
<filter id="filter0_d_2_3" x="0.775833" y="0.742004" width="174.706" height="45.374" filterUnits="userSpaceOnUse" color-interpolation-filters="sRGB">
<feFlood flood-opacity="0" result="BackgroundImageFix"/>
<feColorMatrix in="SourceAlpha" type="matrix" values="0 0 0 0 0 0 0 0 0 0 0 0 0 0 0 0 0 0 127 0" result="hardAlpha"/>
<feOffset dx="3" dy="4"/>
<feGaussianBlur stdDeviation="3"/>
<feComposite in2="hardAlpha" operator="out"/>
<feColorMatrix type="matrix" values="0 0 0 0 0 0 0 0 0 0 0 0 0 0 0 0 0 0 0.25 0"/>
<feBlend mode="normal" in2="BackgroundImageFix" result="effect1_dropShadow_2_3"/>
<feBlend mode="normal" in="SourceGraphic" in2="effect1_dropShadow_2_3" result="shape"/>
</filter>
</defs>
</svg>
